# xmcd CD database file
#
# Track frame offsets:
#	150
#	12295
#	24516
#	37446
#	50369
#	62134
#	73899
#	87665
#	101431
#	116835
#	132238
#	148861
#	165484
#	180533
#	195581
#	219752
#	243922
#	257317
#
# Disc length: 3447 seconds
#
# Revision: 0
# Processed by: cddbd v1.5.2PL0 Copyright (c) Steve Scherf et al.
# Submitted via: CDex 1.51
#
DISCID=020d7512
DTITLE=Blues Guitar Play Along - Volume 7
DYEAR=2003
DGENRE=Blues
TTITLE0=All your love (I miss loving) - Otis Rush
TTITLE1=Backtrack - All your love (I miss loving) - Otis Rush
TTITLE2=Born under a bad sign - Albert King
TTITLE3=Backtrack - Born under a bad sign - Albert King
TTITLE4=Hide Away - Freddy King
TTITLE5=Backtrack - Hide Away - Freddy King
TTITLE6=I'm tore down - Eric Clapton
TTITLE7=Backtrack - I'm tore down - Eric Clapton
TTITLE8=I'm your hoochie coochie man - Muddy Waters
TTITLE9=Backtrack - I'm your hoochie coochie man - Muddy Waters
TTITLE10=Pride and joy - Stevie Ray Vaughan
TTITLE11=Backtrack - Pride and joy - Stevie Ray Vaughan
TTITLE12=Sweet home Chicago - Various artists
TTITLE13=Backtrack - Sweet home Chicago - Various artists
TTITLE14=The thrill is gone - B.B. King
TTITLE15=Backtrack - The thrill is gone - B.B. King
TTITLE16=Tuning
TTITLE17=CD-ROM software
EXTD=
EXTT0=
EXTT1=
EXTT2=
EXTT3=
EXTT4=
EXTT5=
EXTT6=
EXTT7=
EXTT8=
EXTT9=
EXTT10=
EXTT11=
EXTT12=
EXTT13=
EXTT14=
EXTT15=
EXTT16=
EXTT17=
PLAYORDER=
